# xmcd CD database file
#
# Track frame offsets:
#	150
#	22870
#	45061
#	68534
#	90753
#	102551
#	123627
#	146932
#	169597
#	188974
#
# Disc length: 2759 seconds
#
# Revision: 1
# Processed by: cddbd v1.5.2PL0 Copyright (c) Steve Scherf et al.
# Submitted via: CDex 1.70beta2
#
DISCID=780ac50a
DTITLE=Can Atilla - Efsaneler
DYEAR=1997
DGENRE=New Age
TTITLE0=Hekimoglu
TTITLE1=Seyyah
TTITLE2=Semah
TTITLE3=Daglar
TTITLE4=Efsaneler
TTITLE5=Ilgaz
TTITLE6=Muhur Gozlum
TTITLE7=Gelibolu
TTITLE8=Bitez Yalisi
TTITLE9=Urfa Turkusu
EXTD=YEAR: 1997
EXTT0=
EXTT1=
EXTT2=
EXTT3=
EXTT4=
EXTT5=
EXTT6=
EXTT7=
EXTT8=
EXTT9=
PLAYORDER=
